<?xml version="1.0" encoding="UTF-8" standalone="no" ?>
<!DOCTYPE svg PUBLIC "-//W3C//DTD SVG 1.1//EN" "http://www.w3.org/Graphics/SVG/1.1/DTD/svg11.dtd">
<svg xmlns="http://www.w3.org/2000/svg" xmlns:xlink="http://www.w3.org/1999/xlink" version="1.1" width="1080" height="1080" viewBox="0 0 1080 1080" xml:space="preserve">
<desc>Created with Fabric.js 5.2.4</desc>
<defs>
</defs>
<g transform="matrix(1 0 0 1 540 540)" id="74a3e9fa-e26b-44b3-9f87-189d281abea2"  >
<rect style="stroke: none; stroke-width: 1; stroke-dasharray: none; stroke-linecap: butt; stroke-dashoffset: 0; stroke-linejoin: miter; stroke-miterlimit: 4; fill: rgb(255,255,255); fill-rule: nonzero; opacity: 1; visibility: hidden;" vector-effect="non-scaling-stroke"  x="-540" y="-540" rx="0" ry="0" width="1080" height="1080" />
</g>
<g transform="matrix(1 0 0 1 540 540)" id="26ecbdf5-bebc-4554-b8e5-101ca3eabcf0"  >
</g>
<g transform="matrix(2.1 0 0 2.1 536.52 540.32)"  >
<g style="" vector-effect="non-scaling-stroke"   >
		<g transform="matrix(1 0 0 1 -161.92 0)"  >
<path style="stroke: none; stroke-width: 1; stroke-dasharray: none; stroke-linecap: butt; stroke-dashoffset: 0; stroke-linejoin: miter; stroke-miterlimit: 4; fill: rgb(0,114,188); fill-rule: nonzero; opacity: 1;" vector-effect="non-scaling-stroke"  transform=" translate(-213.05, -250)" d="M 125.004 250.001 C 125.004 362.34000000000003 199.109 457.36400000000003 301.103 488.87 L 301.103 11.132 C 199.111 42.638 125.004 137.663 125.004 250.001 z" stroke-linecap="round" />
</g>
		<g transform="matrix(1 0 0 1 88.22 0)"  >
<path style="stroke: none; stroke-width: 1; stroke-dasharray: none; stroke-linecap: butt; stroke-dashoffset: 0; stroke-linejoin: miter; stroke-miterlimit: 4; fill: rgb(255,218,68); fill-rule: nonzero; opacity: 1;" vector-effect="non-scaling-stroke"  transform=" translate(-463.2, -250)" d="M 624.944 250.001 C 624.944 111.946 513.029 0.03100000000000591 374.97399999999993 0.03100000000000591 C 349.38399999999996 0.03100000000000591 324.69499999999994 3.885000000000006 301.44699999999995 11.029000000000005 L 301.44699999999995 488.972 C 324.69499999999994 496.11699999999996 349.38499999999993 499.96999999999997 374.97399999999993 499.96999999999997 C 513.029 499.971 624.944 388.056 624.944 250.001 z" stroke-linecap="round" />
</g>
		<g transform="matrix(1 0 0 1 -101.47 0)"  >
<path style="stroke: none; stroke-width: 1; stroke-dasharray: none; stroke-linecap: butt; stroke-dashoffset: 0; stroke-linejoin: miter; stroke-miterlimit: 4; fill: rgb(218,18,26); fill-rule: nonzero; opacity: 1;" vector-effect="non-scaling-stroke"  transform=" translate(-273.51, -250)" d="M 245.91 35.893 L 245.91 464.11 C 263.069 474.476 281.574 482.839 301.102 488.87100000000004 L 301.102 11.132 C 281.574 17.164 263.07 25.527 245.91 35.893 z" stroke-linecap="round" />
</g>
		<g transform="matrix(1 0 0 1 84.38 55.59)"  >
<path style="stroke: none; stroke-width: 1; stroke-dasharray: none; stroke-linecap: butt; stroke-dashoffset: 0; stroke-linejoin: miter; stroke-miterlimit: 4; fill: rgb(218,18,26); fill-rule: nonzero; opacity: 1;" vector-effect="non-scaling-stroke"  transform=" translate(-459.35, -305.6)" d="M 295.314 333.372 L 610.683 333.372 C 616.9399999999999 315.684 621.261 297.083 623.395 277.819 L 295.314 277.819 L 295.314 333.372 z" stroke-linecap="round" />
</g>
		<g transform="matrix(1 0 0 1 64.08 166.7)"  >
<path style="stroke: none; stroke-width: 1; stroke-dasharray: none; stroke-linecap: butt; stroke-dashoffset: 0; stroke-linejoin: miter; stroke-miterlimit: 4; fill: rgb(218,18,26); fill-rule: nonzero; opacity: 1;" vector-effect="non-scaling-stroke"  transform=" translate(-439.06, -416.7)" d="M 295.314 444.475 L 532.01 444.475 C 551.5989999999999 428.637 568.749 409.908 582.804 388.923 L 295.31399999999996 388.923 L 295.31399999999996 444.475 L 295.314 444.475 z" stroke-linecap="round" />
</g>
		<g transform="matrix(1 0 0 1 84.39 -55.51)"  >
<path style="stroke: none; stroke-width: 1; stroke-dasharray: none; stroke-linecap: butt; stroke-dashoffset: 0; stroke-linejoin: miter; stroke-miterlimit: 4; fill: rgb(218,18,26); fill-rule: nonzero; opacity: 1;" vector-effect="non-scaling-stroke"  transform=" translate(-459.36, -194.49)" d="M 295.314 222.269 L 623.405 222.269 C 621.279 203.006 616.966 184.40800000000002 610.716 166.719 L 295.31600000000003 166.719 L 295.314 222.269 L 295.314 222.269 z" stroke-linecap="round" />
</g>
		<g transform="matrix(1 0 0 1 64.11 -166.61)"  >
<path style="stroke: none; stroke-width: 1; stroke-dasharray: none; stroke-linecap: butt; stroke-dashoffset: 0; stroke-linejoin: miter; stroke-miterlimit: 4; fill: rgb(218,18,26); fill-rule: nonzero; opacity: 1;" vector-effect="non-scaling-stroke"  transform=" translate(-439.09, -83.39)" d="M 295.314 111.167 L 582.863 111.167 C 568.8240000000001 90.188 551.69 71.457 532.12 55.616 L 295.314 55.616 L 295.314 111.167 z" stroke-linecap="round" />
</g>
</g>
</g>
</svg>